<?xml version="1.0" encoding="UTF-8"?>
<svg id="Calque_2" data-name="Calque 2" xmlns="http://www.w3.org/2000/svg" viewBox="0 0 1089 1089">
  <defs>
    <style>
      .cls-1 {
        fill: none;
        stroke: #9d524f;
        stroke-linecap: round;
        stroke-linejoin: round;
        stroke-width: 9px;
      }
    </style>
  </defs>
  <g id="Calque_1-2" data-name="Calque 1">
    <g>
      <g>
        <g>
          <rect class="cls-1" x="435.22" y="295.75" width="218.56" height="40.45"/>
          <rect class="cls-1" x="459.59" y="336.21" width="170.54" height="115.37"/>
          <circle class="cls-1" cx="542.01" cy="193.2" r="63.76"/>
          <path class="cls-1" d="m453.73,295.75c5.64-24.71,21.39-45.58,42.67-58.01"/>
          <path class="cls-1" d="m587.62,237.74c21.09,12.32,36.75,32.92,42.51,57.34"/>
        </g>
        <g>
          <circle class="cls-1" cx="319.64" cy="537.54" r="63.76"/>
          <path class="cls-1" d="m231.36,640.09c5.64-24.71,21.39-45.58,42.67-58.01"/>
          <path class="cls-1" d="m365.25,582.08c21.09,12.32,36.75,32.92,42.51,57.34"/>
          <circle class="cls-1" cx="469.53" cy="535.31" r="63.76"/>
          <path class="cls-1" d="m393.53,608.85c7.71-11.88,18.14-21.84,30.4-29"/>
          <path class="cls-1" d="m515.14,579.85c21.09,12.32,36.75,32.92,42.51,57.34"/>
          <circle class="cls-1" cx="619.78" cy="535.31" r="63.76"/>
          <path class="cls-1" d="m544.65,607.53c7.62-11.3,17.72-20.79,29.52-27.68"/>
          <path class="cls-1" d="m665.39,579.85c21.09,12.32,36.75,32.92,42.51,57.34"/>
          <circle class="cls-1" cx="769.52" cy="535.31" r="63.76"/>
          <path class="cls-1" d="m694.55,607.29c7.6-11.19,17.64-20.6,29.36-27.44"/>
          <path class="cls-1" d="m815.13,579.85c21.09,12.32,36.75,32.92,42.51,57.34"/>
        </g>
        <g>
          <circle class="cls-1" cx="319.64" cy="697.27" r="63.76"/>
          <path class="cls-1" d="m231.36,799.82c5.64-24.71,21.39-45.58,42.67-58.01"/>
          <path class="cls-1" d="m365.25,741.81c21.09,12.32,36.75,32.92,42.51,57.34"/>
          <circle class="cls-1" cx="469.53" cy="695.04" r="63.76"/>
          <path class="cls-1" d="m393.53,768.58c7.71-11.88,18.14-21.84,30.4-29"/>
          <path class="cls-1" d="m515.14,739.58c21.09,12.32,36.75,32.92,42.51,57.34"/>
          <circle class="cls-1" cx="619.78" cy="695.04" r="63.76"/>
          <path class="cls-1" d="m544.65,767.26c7.62-11.3,17.72-20.79,29.52-27.68"/>
          <path class="cls-1" d="m665.39,739.58c21.09,12.32,36.75,32.92,42.51,57.34"/>
          <circle class="cls-1" cx="769.52" cy="695.04" r="63.76"/>
          <path class="cls-1" d="m694.55,767.02c7.6-11.19,17.64-20.6,29.36-27.44"/>
          <path class="cls-1" d="m815.13,739.58c21.09,12.32,36.75,32.92,42.51,57.34"/>
        </g>
        <g>
          <circle class="cls-1" cx="319.64" cy="857.01" r="63.76"/>
          <path class="cls-1" d="m231.36,959.56c5.64-24.71,21.39-45.58,42.67-58.01"/>
          <path class="cls-1" d="m365.25,901.55c21.09,12.32,36.75,32.92,42.51,57.34"/>
          <circle class="cls-1" cx="469.53" cy="854.78" r="63.76"/>
          <path class="cls-1" d="m393.53,928.32c7.71-11.88,18.14-21.84,30.4-29"/>
          <path class="cls-1" d="m515.14,899.32c21.09,12.32,36.75,32.92,42.51,57.34"/>
          <circle class="cls-1" cx="619.78" cy="854.78" r="63.76"/>
          <path class="cls-1" d="m544.65,927c7.62-11.3,17.72-20.79,29.52-27.68"/>
          <path class="cls-1" d="m665.39,899.32c21.09,12.32,36.75,32.92,42.51,57.34"/>
          <circle class="cls-1" cx="769.52" cy="854.78" r="63.76"/>
          <path class="cls-1" d="m694.55,926.76c7.6-11.19,17.64-20.6,29.36-27.44"/>
          <path class="cls-1" d="m815.13,899.32c21.09,12.32,36.75,32.92,42.51,57.34"/>
        </g>
      </g>
      <circle class="cls-1" cx="544.5" cy="544.5" r="540"/>
    </g>
  </g>
</svg>