<?xml version="1.0" encoding="UTF-8"?>
<svg id="Calque_2" data-name="Calque 2" xmlns="http://www.w3.org/2000/svg" viewBox="0 0 1100.76 1100.76">
  <defs>
    <style>
      .cls-1 {
        fill: none;
        stroke: #a48bad;
        stroke-linecap: round;
        stroke-linejoin: round;
        stroke-width: 9px;
      }
    </style>
  </defs>
  <g id="Calque_1-2" data-name="Calque 1">
    <g>
      <polyline class="cls-1" points="278.74 782.78 278.74 220.33 750.84 220.33 750.84 782.78 367.97 782.78"/>
      <path class="cls-1" d="m367.97,783.86v51.95c0,24.64-19.97,44.61-44.61,44.61h0c-24.64,0-44.61-19.97-44.61-44.61v-51.95"/>
      <path class="cls-1" d="m323.36,880.43h463.62s36.14-11.34,35.01-48.28.03-48.28.03-48.28l-71.18-1.08"/>
      <line class="cls-1" x1="346.51" y1="715.9" x2="486.55" y2="715.9"/>
      <line class="cls-1" x1="542.65" y1="715.9" x2="682.7" y2="715.9"/>
      <path class="cls-1" d="m670.65,652.9h-316.23c0-4.47,0-8.94,0-13.41,0-112.61,0-225.23,0-337.84h316.23c0,15.4,0,30.8,0,46.2,0,101.68,0,203.37,0,305.05Z"/>
      <path class="cls-1" d="m354.41,582.5c13.7-20.51,27.3-36.46,38.4-48.19,24.21-25.59,53.1-56.14,99.39-72.28,42.64-14.87,58.81-3.13,92.61-12.42,25.07-6.89,55.62-24.19,85.84-67.69"/>
    </g>
    <circle class="cls-1" cx="550.38" cy="550.38" r="545.88"/>
  </g>
</svg>