<?xml version="1.0" encoding="UTF-8"?>
<svg id="Calque_2" data-name="Calque 2" xmlns="http://www.w3.org/2000/svg" viewBox="0 0 1072.18 1072.18">
  <defs>
    <style>
      .cls-1 {
        fill: #2b9a9b;
      }

      .cls-1, .cls-2 {
        stroke-width: 0px;
      }

      .cls-2 {
        fill: #fff;
      }
    </style>
  </defs>
  <g id="Calque_1-2" data-name="Calque 1">
    <circle class="cls-1" cx="536.09" cy="536.09" r="536.09"/>
    <g>
      <path class="cls-2" d="m536.09,259.67c90.23,0,100.92.34,136.55,1.97,32.95,1.5,50.84,7.01,62.75,11.64,15.77,6.13,27.03,13.45,38.86,25.28,11.83,11.83,19.15,23.08,25.28,38.86,4.63,11.91,10.13,29.8,11.64,62.75,1.63,35.63,1.97,46.32,1.97,136.55s-.34,100.92-1.97,136.55c-1.5,32.95-7.01,50.84-11.64,62.75-6.13,15.77-13.45,27.03-25.28,38.86-11.83,11.83-23.08,19.15-38.86,25.28-11.91,4.63-29.8,10.13-62.75,11.64-35.63,1.63-46.32,1.97-136.55,1.97s-100.93-.34-136.55-1.97c-32.95-1.5-50.84-7.01-62.75-11.64-15.77-6.13-27.03-13.45-38.86-25.28-11.82-11.82-19.15-23.08-25.28-38.86-4.63-11.91-10.13-29.8-11.64-62.75-1.63-35.63-1.97-46.32-1.97-136.55s.34-100.92,1.97-136.55c1.5-32.95,7.01-50.84,11.64-62.75,6.13-15.77,13.45-27.03,25.28-38.86,11.83-11.83,23.08-19.15,38.86-25.28,11.91-4.63,29.8-10.13,62.75-11.64,35.63-1.63,46.32-1.97,136.55-1.97m0-60.89c-91.78,0-103.29.39-139.33,2.03-35.97,1.64-60.53,7.35-82.03,15.71-22.22,8.64-41.07,20.19-59.85,38.98-18.79,18.79-30.34,37.63-38.98,59.85-8.35,21.5-14.07,46.06-15.71,82.03-1.64,36.04-2.03,47.55-2.03,139.33s.39,103.29,2.03,139.33c1.64,35.97,7.35,60.53,15.71,82.03,8.64,22.22,20.19,41.07,38.98,59.85,18.79,18.79,37.63,30.34,59.85,38.98,21.5,8.35,46.06,14.07,82.03,15.71,36.04,1.64,47.55,2.03,139.33,2.03s103.29-.39,139.33-2.03c35.97-1.64,60.53-7.35,82.03-15.71,22.22-8.64,41.07-20.19,59.85-38.98,18.79-18.79,30.34-37.63,38.98-59.85,8.35-21.5,14.07-46.06,15.71-82.03,1.64-36.04,2.03-47.55,2.03-139.33s-.39-103.29-2.03-139.33c-1.64-35.97-7.35-60.53-15.71-82.03-8.64-22.22-20.19-41.07-38.98-59.85-18.79-18.79-37.63-30.34-59.85-38.98-21.5-8.35-46.06-14.07-82.03-15.71-36.04-1.64-47.55-2.03-139.33-2.03h0Z"/>
      <path class="cls-2" d="m536.09,363.18c-95.84,0-173.53,77.69-173.53,173.53s77.69,173.53,173.53,173.53,173.53-77.69,173.53-173.53-77.69-173.53-173.53-173.53Zm0,286.18c-62.21,0-112.65-50.43-112.65-112.64s50.43-112.64,112.65-112.64,112.64,50.43,112.64,112.64-50.43,112.64-112.64,112.64Z"/>
      <circle class="cls-2" cx="716.48" cy="356.32" r="40.55"/>
    </g>
  </g>
</svg>