<?xml version="1.0" encoding="UTF-8"?>
<svg id="Calque_2" data-name="Calque 2" xmlns="http://www.w3.org/2000/svg" viewBox="0 0 1089 1089">
  <defs>
    <style>
      .cls-1 {
        fill: none;
        stroke: #e5ae1e;
        stroke-linecap: round;
        stroke-linejoin: round;
        stroke-width: 9px;
      }
    </style>
  </defs>
  <g id="Calque_1-2" data-name="Calque 1">
    <g>
      <rect class="cls-1" x="170.95" y="524.45" width="747.1" height="308.89"/>
      <rect class="cls-1" x="301.39" y="524.45" width="486.93" height="208.94"/>
      <rect class="cls-1" x="342.05" y="255.65" width="403.2" height="268.8"/>
      <polyline class="cls-1" points="342.05 457.78 238.71 457.78 238.71 524.45 851.98 524.45 851.98 457.78 745.25 457.78"/>
      <polyline class="cls-1" points="745.25 457.78 799.46 457.78 799.46 386.1 745.25 386.1"/>
      <polyline class="cls-1" points="342.05 386.1 287.84 386.1 287.84 457.78 342.05 457.78"/>
      <line class="cls-1" x1="402.48" y1="342.62" x2="525.02" y2="342.62"/>
      <line class="cls-1" x1="566.24" y1="342.62" x2="688.78" y2="342.62"/>
      <line class="cls-1" x1="402.48" y1="417.16" x2="525.02" y2="417.16"/>
      <line class="cls-1" x1="566.24" y1="417.16" x2="688.78" y2="417.16"/>
      <circle class="cls-1" cx="685.11" cy="625.82" r="43.2"/>
    </g>
    <circle class="cls-1" cx="544.5" cy="544.5" r="540"/>
  </g>
</svg>